<svg xmlns="http://www.w3.org/2000/svg" xmlns:xlink="http://www.w3.org/1999/xlink" width="101" height="128" version="1.1" viewBox="0 0 101 128"><title>Lock</title><desc>Created with Sketch.</desc><defs><linearGradient id="linearGradient-1" x1="14.718%" x2="30.138%" y1="21.252%" y2="50%"><stop offset="0%" stop-color="#FFF" stop-opacity="0"/><stop offset="100%" stop-color="#E2E5ED"/></linearGradient><linearGradient id="linearGradient-2" x1="58.424%" x2="58.424%" y1="11.945%" y2="97.75%"><stop offset="0%" stop-color="#383A40"/><stop offset="100%" stop-color="#4F535E"/></linearGradient><linearGradient id="linearGradient-3" x1="50%" x2="50%" y1="6.809%" y2="101.528%"><stop offset="0%" stop-color="#383A40"/><stop offset="100%" stop-color="#4F535E"/></linearGradient><linearGradient id="linearGradient-4" x1="69.022%" x2="47.688%" y1="20.172%" y2="81.15%"><stop offset="0%" stop-color="#383A40"/><stop offset="100%" stop-color="#4F535E"/></linearGradient><linearGradient id="linearGradient-5" x1="50%" x2="50%" y1="0%" y2="100%"><stop offset="0%" stop-color="#3F4249"/><stop offset="52.007%" stop-color="#FFF"/><stop offset="100%" stop-color="#494D55"/></linearGradient><linearGradient id="linearGradient-6" x1="0%" x2="107.989%" y1="52.045%" y2="52.045%"><stop offset="0%" stop-color="#43454E"/><stop offset="54.827%" stop-color="#2B2B2D"/><stop offset="100%" stop-color="#484C55"/></linearGradient></defs><g id="Page" fill="none" fill-rule="evenodd" stroke="none" stroke-width="1"><g id="修改支付密码／选择方式" transform="translate(-1428.000000, -469.000000)"><g id="Lock" transform="translate(1390.000000, 453.000000)"><rect id="box-copy" width="160" height="160" x="0" y="0"/><rect id="box" width="128" height="128" x="16" y="16"/><polygon id="shadow" fill="url(#linearGradient-1)" points="96.613 143.613 65.315 126.79 116.493 113.636 143.271 136.495" transform="translate(104.292880, 128.624810) scale(-1, 1) translate(-104.292880, -128.624810)"/><g id="Group" transform="translate(38.035648, 55.623822)"><polygon id="Path" fill="url(#linearGradient-2)" fill-rule="nonzero" points="65.945 22.733 65.945 86.758 82.931 78.889 82.931 14.624"/><path id="Path" fill="#4C505A" fill-rule="nonzero" d="M1.93437706,68.4759945 L1.93437706,68.4759945 L1.93437706,68.4759945 C6.93047577,64.3064876 13.4459707,62.5721297 19.7868321,63.7238542 L78.8486591,74.4515683 L78.8486591,74.4515683 C81.3654116,74.9086995 83.0445647,77.3731885 82.5991526,79.9561586 C82.4052793,81.0804414 81.8232763,82.0954239 80.9597254,82.815233 L80.9597254,82.815233 L80.9597254,82.815233 C75.9672159,86.9767175 69.4599299,88.7080248 63.1262759,87.5599427 L4.05260637,76.8518383 L4.05260637,76.8518383 C1.53158725,76.3948607 -0.151146139,73.9269465 0.294116121,71.3395973 C0.4878569,70.2138 1.07013116,69.1972531 1.93437706,68.4759945 Z"/><polygon id="Path" fill="url(#linearGradient-3)" fill-rule="nonzero" points=".023 8.484 .023 71.464 5.484 73.232 5.484 11.281"/><polygon id="Rectangle" fill="url(#linearGradient-4)" fill-rule="nonzero" points="2.967 11.164 68.23 23.307 68.23 87.845 2.967 75.702"/><path id="Shape" fill="#333538" fill-rule="nonzero" d="M32.6317368,46.6630842 C31.4494764,45.6606347 30.6540558,44.1470281 30.6540558,42.6453598 C30.6540558,40.4047322 32.4249316,39.0379673 34.6094178,39.5926048 C36.793904,40.1472424 38.5647798,42.4144485 38.5647798,44.6565515 C38.5647798,46.1592086 37.7693593,47.268692 36.5870989,47.6696584 L36.5870989,59.3750733 C36.5870989,60.4959405 35.7016609,61.1782016 34.6094178,60.8989463 C33.5171747,60.6196911 32.6317368,59.4849667 32.6317368,58.3644685 L32.6317368,46.6630842 Z"/><path id="Shape" stroke="url(#linearGradient-5)" stroke-width="1" d="M34.1786807,38.9604825 L34.7281602,39.0999944 C37.1310737,39.7100904 39.0592313,42.1786601 39.0592313,44.6565515 C39.0592313,46.1992682 38.3042399,47.4483898 37.0815502,48.0158067 L37.0815502,48.0158067 L37.0815502,59.3750733 C37.0815502,60.8308158 35.8896323,61.7492306 34.4898946,61.3913578 C33.1796657,61.0563698 32.1372854,59.7205176 32.1401507,58.3099171" opacity=".1"/><path id="Path" fill="#4B5059" fill-rule="nonzero" d="M1.93437706,5.55085383 L1.93437706,5.55085383 L1.93437706,5.55085383 C6.93769366,1.37532324 13.4443641,-0.400088116 19.8075822,0.67396759 L78.5133855,10.582995 L78.5133855,10.582995 C81.1998487,11.0364465 83.0194861,13.6391502 82.5776593,16.3962964 C82.3921101,17.5541858 81.82016,18.6098744 80.9597254,19.3826315 L80.9597254,19.3826315 L80.9597254,19.3826315 C75.989692,23.8462225 69.3159724,25.7567894 62.8123583,24.577899 L4.05260637,13.9266977 L4.05260637,13.9266977 C1.53158725,13.46972 -0.151146139,11.0018058 0.294116121,8.41445664 C0.4878569,7.28865937 1.07013116,6.27211242 1.93437706,5.55085383 Z"/><path id="Path" fill="url(#linearGradient-6)" fill-rule="nonzero" d="M63.2857926,25.1469759 L63.2857926,86.8571938 C64.3592739,87.116972 65.6232624,87.2468612 67.0777581,87.2468612 C67.5487862,87.2468612 69.3192505,87.3767264 69.7606197,87.2468612 L74.7923953,86.0681073 C76.3381369,85.6132997 77.5652244,85.3355672 77.5652244,84.033282 L77.9346014,22.4289859 C76.911566,23.1146631 75.6766994,23.7905609 74.2300014,24.4566792 C73.353146,24.8604189 72.3081632,25.2700362 70.2560934,25.285069 C68.8880468,25.2950909 66.5646132,25.2490599 63.2857926,25.1469759 Z" opacity=".166"/></g><g id="Group" transform="translate(54.000000, 20.000000)"><ellipse id="Oval" cx="46" cy="51.777" fill="#393B40" fill-rule="nonzero" rx="5" ry="3.17"/><ellipse id="Oval" cx="5" cy="44.38" fill="#393B40" fill-rule="nonzero" rx="5" ry="3.17"/><ellipse id="Oval" cx="46" cy="50.192" fill="#BABABA" fill-rule="nonzero" rx="4" ry="2.642"/><ellipse id="Oval" cx="5" cy="42.795" fill="#BABABA" fill-rule="nonzero" rx="4" ry="2.642"/><path id="Combined-Shape" stroke="#BBB" stroke-width="8.001" d="M45.999748,50.192107 L45.999748,29.314915 C45.999748,14.9924234 37.06032,2.74486015 24.814004,0.288912666 C23.8562509,0.096839286 22.8859088,0.000266232453 21.9137568,0.000266232453 C12.5727424,0.000266232453 5.00025197,8.72523286 5.00025197,19.4881699 L5.00025197,42.0572528 L5.00025197,42.0572528"/><path id="Combined-Shape" fill="#FFF" fill-rule="nonzero" d="M25.5,3.47063832 C37.3499711,5.86073787 46.7094868,15.7186808 46.7094868,29.6569326 C46.7094868,39.944835 46.7094868,47.4825039 46.7094868,52.2699395 C46.7094868,52.6192726 43.3423317,53.6392837 42.4997674,50.9408177 M42.4997674,50.9408177 L42.4997674,26.0724933 C42.4997674,16.0830652 35.0377816,5.18360263 25.5,3.47063832" opacity=".066"/><path id="Combined-Shape" fill="#999" fill-rule="nonzero" d="M22.0324662,1.48714257 C21.0656987,1.28311001 20.1489004,1.36355519 19.1675979,1.36355519 C9.73874161,1.36355519 3.2550372,10.3249507 3.2550372,21.7576254 L3.2550372,44.4816951 L8.24359153,44.4816951 L8.24359153,18.8014843 C8.24359153,10.4019681 14.5720429,3.53300783 22.3508494,3.53300783 C23.160424,3.53300783 24.773255,3.69295482 25.5708381,3.84285627 C27.6918522,4.24148942 29.6819938,5.02500877 31.4945795,6.11748154 C28.7242185,3.83505708 25.5220362,2.22360283 22.0324662,1.48714257 Z" opacity=".103"/></g></g></g></g></svg>